<?xml version="1.0" encoding="utf-8"?><svg xmlns="http://www.w3.org/2000/svg" xmlns:xlink="http://www.w3.org/1999/xlink"><symbol fill="none" viewBox="0 0 40 40" id="burger" xmlns="http://www.w3.org/2000/svg"><circle opacity=".8" cx="20" cy="20" r="20" fill="#D83838"/><path stroke="#fff" stroke-width="2" stroke-linecap="round" d="M9 14h22M9 19h22M9 24h22"/></symbol><symbol viewBox="0 0 15 14" id="call" xmlns="http://www.w3.org/2000/svg"><path d="M11.771 5.385h-1.076A1.617 1.617 0 009.08 3.769V2.692a2.694 2.694 0 012.691 2.693z"/><path d="M13.925 5.385h-1.077a3.774 3.774 0 00-3.768-3.77V.538a4.849 4.849 0 014.845 4.847zM12.848 14h-.091C2.179 13.392.677 4.464.467 1.74A1.616 1.616 0 012.083 0H4.92A1.076 1.076 0 015.92.678l.819 2.014a1.077 1.077 0 01-.237 1.163L5.355 5.013a5.04 5.04 0 004.08 4.092l1.168-1.157a1.076 1.076 0 011.168-.221l2.03.813a1.076 1.076 0 01.662 1.002v2.843A1.616 1.616 0 0112.848 14zM2.082 1.077a.538.538 0 00-.538.581c.248 3.188 1.836 10.727 11.272 11.265a.538.538 0 00.57-.505V9.542l-2.029-.814-1.545 1.535-.258-.032C4.87 9.644 4.236 4.959 4.236 4.91l-.033-.259 1.529-1.545-.807-2.03H2.082z"/></symbol><symbol fill="none" viewBox="0 0 14 14" id="call-white" xmlns="http://www.w3.org/2000/svg"><path d="M11.309 5.385h-1.077a1.617 1.617 0 00-1.615-1.616V2.692a2.694 2.694 0 012.692 2.693z" fill="#fff"/><path d="M13.462 5.385h-1.077a3.774 3.774 0 00-3.768-3.77V.538a4.849 4.849 0 014.845 4.847zM12.385 14h-.091C1.716 13.392.214 4.464.004 1.74A1.616 1.616 0 011.62 0h2.836a1.076 1.076 0 011.001.678l.819 2.014a1.077 1.077 0 01-.237 1.163L4.892 5.013a5.04 5.04 0 004.08 4.092l1.168-1.157a1.076 1.076 0 011.169-.221l2.029.813A1.076 1.076 0 0114 9.542v2.843A1.616 1.616 0 0112.385 14zM1.62 1.077a.538.538 0 00-.539.581c.248 3.188 1.836 10.727 11.272 11.265a.538.538 0 00.57-.505V9.542l-2.029-.814-1.545 1.535-.258-.032c-4.683-.587-5.318-5.272-5.318-5.32l-.033-.259 1.53-1.545-.808-2.03H1.62z" fill="#fff"/></symbol><symbol fill="none" viewBox="0 0 51 51" id="close" xmlns="http://www.w3.org/2000/svg"><path fill="#fff" d="M23.91 17.09l.786-.786 10.606 10.607-.785.786z"/><path fill="#fff" d="M24.695 27.696l-.785-.786 10.606-10.606.786.785z"/><circle cx="29.5" cy="21.5" r="14" stroke="#fff"/></symbol><symbol fill="none" viewBox="0 0 29 29" id="close-red" xmlns="http://www.w3.org/2000/svg"><circle cx="14.5" cy="14.5" r="14" stroke="#D83838"/><path fill="#D83838" d="M8.91 10.09l.786-.786 10.606 10.607-.785.786z"/><path fill="#D83838" d="M9.695 20.696l-.785-.786L19.516 9.304l.786.785z"/></symbol><symbol fill="none" viewBox="0 0 63 63" id="confidentiality" xmlns="http://www.w3.org/2000/svg"><path fill-rule="evenodd" clip-rule="evenodd" d="M8.568.106c-1.02.31-1.858 1.134-2.15 2.115-.133.448-.192 1.165-.192 2.346v1.7H4.522c-1.183 0-1.9.059-2.35.191-.75.223-1.514.859-1.903 1.585l-.269.5V60.72l.267.492c.314.58.918 1.174 1.52 1.494.414.22 1.092.23 16.128.261L33.611 63l.362-.361c.47-.47.47-.908.002-1.375l-.36-.36H2.755l-.36-.36-.36-.36V9.112l.297-.345.297-.346 13.383-.032 13.382-.032.036 5.2c.035 5.082.042 5.213.306 5.705.148.277.477.686.73.908.929.813.825.8 6.417.84l5.075.037.042 1.4c.038 1.282.066 1.426.34 1.716.398.423 1.018.43 1.433.015.298-.298.302-.33.302-2.49V19.5l-6.595-6.586-6.594-6.586-11.291-.032-11.291-.033.04-1.793c.04-1.792.04-1.794.386-2.09l.345-.297H36.373l6.009 6.002 6.008 6.002v4.158c0 2.427.05 4.25.119 4.38.203.379.804.557 1.253.372.691-.287.724-.52.724-5.15 0-2.607-.048-4.311-.129-4.527C50.212 12.929 37.786.441 37.27.168c-.284-.151-2.396-.175-14.363-.166-7.717.005-14.17.052-14.34.104zm31.04 18.812c-.493.02-2.385.02-4.204 0l-3.31-.038-.297-.345-.297-.345V9.898l4.501 4.491 4.502 4.491-.895.038zM13.5 11.743a11.623 11.623 0 00-9.326 10.618c-.283 3.972 1.733 8.024 5.134 10.325 2.162 1.461 5.011 2.164 7.606 1.875 4.898-.545 8.86-4.017 10.046-8.805.38-1.532.38-3.851 0-5.384-1.09-4.4-4.727-7.835-9.145-8.637-1.153-.21-3.257-.205-4.315.008zm4.623 2.206c.407.107 1.267.453 1.911.768 1.004.49 1.34.742 2.35 1.753 1.002 1.004 1.264 1.354 1.753 2.349.77 1.562.998 2.549.997 4.307 0 1.09-.063 1.64-.275 2.392-.317 1.127-1.086 2.67-1.66 3.333l-.397.458-.512-1.03c-.5-1.007-1.414-2.119-2.175-2.647l-.352-.244.315-.464c.887-1.303 1.129-3.224.585-4.643-.397-1.037-1.138-1.985-2-2.56-1.053-.702-1.851-.91-3.252-.85-.969.043-1.252.108-1.937.444-2.88 1.416-3.88 5.012-2.114 7.61l.315.463-.351.244c-.762.528-1.675 1.64-2.175 2.647l-.513 1.03-.396-.458c-.572-.66-1.342-2.203-1.663-3.333-.217-.763-.278-1.288-.276-2.392.004-1.761.235-2.755 1.001-4.307.483-.977.76-1.353 1.693-2.29 1.485-1.492 2.931-2.294 4.875-2.703 1.002-.21 3.231-.146 4.253.123zm-1.11 5.227c1.637.76 2.32 2.802 1.452 4.343-.722 1.283-2.044 1.895-3.427 1.586-1.401-.313-2.43-1.58-2.436-3-.004-.924.253-1.577.873-2.224.642-.67 1.277-.934 2.244-.934.522 0 .973.08 1.295.229zm30.473 6.163c-4.103.743-7.527 3.578-8.956 7.416-.536 1.438-.641 2.18-.705 4.953l-.063 2.707-.598.528c-.382.337-.746.826-1.005 1.351l-.406.823-.035 8.058c-.034 7.813-.027 8.083.217 8.884.318 1.045 1.173 2.029 2.2 2.532l.7.344h21.082l.582-.268c.816-.376 1.759-1.3 2.16-2.117l.341-.692v-16.74l-.406-.824c-.26-.525-.623-1.014-1.005-1.35l-.598-.529-.06-2.768c-.066-3.133-.212-3.911-1.081-5.765-1.494-3.186-4.101-5.36-7.576-6.318-.983-.27-3.806-.404-4.788-.225zM14.61 27.13c.906.23 1.791.185 2.807-.142l.648-.209.678.466c1.103.758 2.022 2.222 2.07 3.297l.023.515-.925.466c-2.587 1.305-5.785 1.306-8.382.003-.537-.27-.94-.553-.965-.678-.076-.402.344-1.536.85-2.293.58-.866 1.754-1.791 2.148-1.691l1.048.266zm37.417.548c1.661.523 2.731 1.178 4.012 2.457.908.906 1.294 1.4 1.688 2.162.868 1.68 1.04 2.483 1.11 5.196l.062 2.369H56.804l-.06-2.246c-.05-1.833-.109-2.393-.32-3.046-1.202-3.703-5.096-5.877-8.823-4.925-2.485.634-4.415 2.435-5.21 4.864-.284.867-.33 1.244-.382 3.168l-.06 2.185H39.85l.067-2.308c.071-2.482.217-3.297.83-4.662 1.238-2.751 3.85-4.813 6.912-5.456.95-.2 3.393-.064 4.367.242zm-1.378 4c1.407.366 2.366 1.063 3.178 2.314.643.989.851 2 .851 4.14v1.73H44.075l.003-1.508c.004-2.863.36-4.039 1.597-5.276 1.368-1.369 3.158-1.872 4.974-1.4zM4.75 37.927c-.677.342-.787 1.163-.225 1.685.266.247.382.25 12.742.25 12.433 0 12.475-.001 12.799-.256.325-.255.431-.8.248-1.277-.219-.569-.007-.56-13.017-.558-9.545.002-12.31.036-12.547.156zm54.775 4.205c.615.218.931.51 1.209 1.114.212.46.227.985.229 8.218.002 6.215-.03 7.803-.164 8.123-.221.529-.963 1.164-1.464 1.255-.222.04-4.846.057-10.276.037l-9.873-.036-.466-.355c-.96-.731-.927-.408-.927-9.06 0-7.202.014-7.721.227-8.182.277-.604.594-.896 1.208-1.114.694-.247 19.603-.247 20.297 0zM4.45 43.44c-.418.497-.406.907.043 1.355l.362.361 12.533-.032 12.532-.032.236-.291c.336-.414.305-1.066-.067-1.438l-.303-.302H4.77l-.32.379zm43.678 1.899c-2.595.83-3.771 4.046-2.281 6.237.261.385.298.604.353 2.08.073 1.972.24 2.47 1.083 3.227.644.578 1.272.822 2.109.821.942-.001 1.482-.227 2.16-.905.823-.82 1.031-1.486 1.031-3.296 0-1.303.009-1.342.462-2.162.444-.8.463-.883.462-2.004 0-1.04-.038-1.241-.343-1.82-.748-1.419-2.033-2.249-3.595-2.321-.539-.025-1.087.029-1.441.143zm2.24 2.19c1.258.663 1.46 2.291.422 3.408-.269.289-.288.42-.325 2.174-.038 1.78-.053 1.882-.338 2.185-.368.39-.955.42-1.4.07-.308-.241-.314-.28-.355-2.122l-.042-1.877-.458-.587c-.752-.966-.774-1.947-.062-2.756.715-.813 1.624-.99 2.559-.496zm-45.83 1.008c-.328.23-.458.773-.29 1.215.275.72-.156.699 13.25.663l12.257-.032.318-.298c.423-.397.438-1.085.033-1.465l-.285-.267H17.31c-10.924 0-12.542.023-12.773.184zm.213 5.141c-.677.343-.787 1.163-.225 1.685.262.244.41.25 6.476.25h6.209l.302-.302c.425-.423.403-.971-.057-1.43l-.36-.36-6.02.002c-4.568.001-6.094.039-6.325.155z" fill="#D83838"/></symbol><symbol fill="none" viewBox="0 0 62 62" id="escort" xmlns="http://www.w3.org/2000/svg"><path fill-rule="evenodd" clip-rule="evenodd" d="M15.967.118C8.457.955 2.175 6.528.467 13.871-.701 18.887.35 24.271 3.3 28.377l.663.923v6.534c0 6.235.01 6.563.242 7.18a3.04 3.04 0 002.275 1.901c.677.128 1.566-.03 2.166-.383.224-.132 2.13-2.116 4.235-4.407l3.827-4.167h3.26v2.514l-.385.159c-.598.247-1.718 1.426-2.074 2.182a6.585 6.585 0 00-.445 1.453c-.157.97-.168 14.271-.012 15.348.309 2.136 1.939 3.875 3.993 4.261.884.167 19.028.167 19.912 0 2.054-.386 3.684-2.125 3.993-4.26.156-1.078.145-14.379-.012-15.349a6.585 6.585 0 00-.445-1.453c-.356-.756-1.476-1.935-2.074-2.182l-.385-.16V35.958l1.789-.002c5.032-.006 9.4-1.778 12.872-5.222 7.154-7.096 7.058-18.759-.21-25.683C53.476 2.18 49.997.56 45.89.113c-1.416-.154-28.538-.15-29.923.005zM47.37 2.332C53.71 3.853 58.355 8.54 59.698 14.766c.172.795.22 1.541.217 3.327-.004 2-.042 2.451-.29 3.451-1.127 4.547-3.792 8.09-7.819 10.397-2.414 1.383-5.277 2.066-8.694 2.076l-1.166.003-.08-.698c-.043-.384-.262-1.23-.486-1.88-1.392-4.048-4.911-6.858-9.223-7.366-4.99-.588-9.869 2.527-11.533 7.365-.224.65-.444 1.505-.489 1.9l-.08.715-2.09-.078-2.09-.08-4.024 4.391c-2.213 2.415-4.178 4.466-4.367 4.558-.416.203-.878.107-1.213-.252-.241-.259-.246-.4-.246-7.083v-6.819l-.788-1.06c-1.334-1.799-2.162-3.518-2.759-5.725-.358-1.326-.377-1.507-.385-3.755-.01-2.589.125-3.523.78-5.41C4.686 7.515 9.395 3.381 14.698 2.361c.531-.102 1.075-.21 1.209-.238.133-.03 7.062-.043 15.398-.031 14.137.02 15.217.037 16.065.24zM12.244 13.071c-.924.13-2.082.718-2.771 1.408a4.92 4.92 0 000 7.013c2.426 2.424 6.532 1.724 7.976-1.36 1.7-3.628-1.242-7.619-5.205-7.061zm17.91.009c-2.22.371-3.967 2.32-4.097 4.572-.153 2.637 1.565 4.777 4.207 5.242 1.875.33 4.046-.697 5.036-2.38 1.053-1.79.82-4.246-.552-5.81-1.103-1.259-2.927-1.903-4.595-1.624zm18.1-.01c-1.508.213-3.03 1.343-3.696 2.745-1.433 3.018.401 6.539 3.69 7.083 1.55.257 3.141-.265 4.283-1.406a4.921 4.921 0 00.015-6.998 5.028 5.028 0 00-4.291-1.423zM14.21 15.294c.729.344 1.174.796 1.506 1.528.48 1.06.273 2.225-.562 3.152-.677.753-1.33 1.012-2.38.945-1.544-.098-2.628-1.181-2.726-2.722-.067-1.051.192-1.702.948-2.381.96-.861 2.103-1.047 3.214-.522zm18.3.123c2.016 1.18 1.922 4.132-.166 5.19-1.746.884-3.853-.111-4.247-2.008a3.034 3.034 0 012.029-3.48c.61-.198 1.789-.05 2.384.298zm17.436-.268c.669.2 1.605 1.073 1.857 1.731.5 1.31-.028 2.901-1.204 3.628-.745.46-1.868.567-2.684.256-.659-.252-1.533-1.187-1.733-1.855a3.003 3.003 0 013.764-3.76zM33.73 26.435c2.79.91 4.906 3.02 5.841 5.828.295.886.327 1.174.376 3.361L40 38.017h-1.966l-.002-1.787c-.003-3.05-.533-4.595-2.108-6.147-1.445-1.424-2.94-2.045-4.922-2.045-1.982 0-3.477.621-4.922 2.045-1.575 1.552-2.105 3.097-2.108 6.147l-.002 1.787h-1.966l.053-2.393c.049-2.187.08-2.475.376-3.36 1.035-3.11 3.479-5.325 6.69-6.067 1.166-.269 3.406-.153 4.607.238zm-1.332 3.775c1.598.464 3.071 1.95 3.388 3.416l.085.394h-9.738l.085-.394c.308-1.425 1.66-2.832 3.238-3.37.797-.27 2.097-.291 2.942-.046zm3.575 6.777v1.03h-9.942v-2.06h9.942v1.03zm5.353 3.364c.377.185.83.525 1.005.755.682.894.674.79.674 8.872 0 5.36-.04 7.583-.142 7.925-.187.622-.994 1.529-1.61 1.809-.463.21-1.043.222-10.251.222s-9.788-.013-10.25-.222c-.617-.28-1.424-1.187-1.611-1.809-.103-.342-.143-2.565-.143-7.925 0-8.003-.002-7.964.628-8.816.348-.47.955-.85 1.67-1.044.421-.115 2.777-.145 9.948-.127l9.397.024.685.336zm-11.648 1.855c-1.578.424-2.875 1.668-3.409 3.271-.563 1.69-.111 3.652 1.142 4.959l.56.584V58H34.033V51.02l.56-.584c1.253-1.307 1.705-3.268 1.142-4.959-.85-2.548-3.473-3.965-6.057-3.271zm2.597 2.101c1.452.631 2.119 2.561 1.387 4.013-.22.437-.973 1.191-1.437 1.44-.246.131-.253.216-.253 3.158v3.024h-1.94v-3.024c0-2.942-.007-3.027-.253-3.159-.464-.248-1.217-1.002-1.437-1.44a2.973 2.973 0 01.445-3.293c.928-1.026 2.185-1.285 3.488-.719z" fill="#D83838"/></symbol><symbol fill="none" viewBox="0 0 24 59" id="logo" xmlns="http://www.w3.org/2000/svg"><path d="M.538 11.35L2.15 5.95c.102-.408.658-1.055 1.076-1.08h6.992a6.72 6.72 0 011.075 0h4.303c.315.032.396.255.538.54l.537 1.08c.224.336.405.7.538 1.08l.538 2.16c.06.36.175.54.538.54a.682.682 0 00.538-.54v-2.7c0-.998-.55-1.853-1.076-2.7a5.513 5.513 0 00-2.057-2.007 5.483 5.483 0 00-2.783-.694h-1.076c-.252 0-.36-.36-.538-.54A4.572 4.572 0 008.067.008H7.53a8.182 8.182 0 00-4.84 1.62 6.98 6.98 0 00-1.076 1.08v.54C.786 4.292 0 5.155 0 6.49v4.861c0 .118.42 0 .538 0-.034.124.128 0 0 0zM9.681 50.238V38.895a1.121 1.121 0 01.538-1.08 2.894 2.894 0 001.076-3.24 2.016 2.016 0 00-.766-1.226 2 2 0 00-1.385-.395c-1.16-.01-2.34.51-2.69 1.62a2.9 2.9 0 001.076 3.241 1.086 1.086 0 01.538 1.08c-.02 3.65 0 7.154 0 10.803v.54L2.69 39.976c-.608-1.282-1.038-2.49-1.614-3.781a1.6 1.6 0 010-1.08 17.71 17.71 0 003.227-9.182c.02-.09-.04.081 0 0h9.143c.298 1.404.196 2.437.538 3.78a17.343 17.343 0 002.69 5.402 1.067 1.067 0 010 1.08" fill="#313131"/><path d="M14.522 24.313v1.08c-.166.407-.64 1.12-1.076 1.08H4.841a1.322 1.322 0 01-1.075-1.08v-1.08h10.756z" fill="#313131"/><path d="M9.143 26.475l2.15-1.08v2.16l-2.15-1.08zM8.606 26.475l-2.15 1.08v-2.16l2.15 1.08z" fill="#FFFCF8"/><path d="M8.606 51.316c-.373-.079-1.416 1.093-1.076 2.16.493 1.593 3.877 2.097 4.84 2.161 3.347.227 4.454-1.217 7.53-.54 1.981.427 2.506 1.138 2.689 1.62.215.583-.228 1.475 0 1.62.227.146.906-.518 1.076-1.08a1.604 1.604 0 00-.538-1.62c-.592-.58-1.358-.894-2.69-1.08-2.015-.295-3.252 0-5.378 0a9.434 9.434 0 01-3.226-.54c-1.81-.464-2.562-.88-2.69-1.08-.49-.8-.278-1.566-.537-1.62z" fill="#313131"/></symbol><symbol fill="none" viewBox="0 0 24 59" id="logo-white" xmlns="http://www.w3.org/2000/svg"><path d="M.538 11.35L2.15 5.95c.102-.408.658-1.055 1.076-1.08h6.992a6.72 6.72 0 011.075 0h4.303c.315.032.396.255.538.54l.537 1.08c.224.336.405.7.538 1.08l.538 2.16c.06.36.175.54.538.54a.682.682 0 00.538-.54v-2.7c0-.998-.55-1.853-1.076-2.7a5.513 5.513 0 00-2.057-2.007 5.483 5.483 0 00-2.783-.694h-1.076c-.252 0-.36-.36-.538-.54A4.572 4.572 0 008.067.008H7.53a8.182 8.182 0 00-4.84 1.62 6.98 6.98 0 00-1.076 1.08v.54C.786 4.292 0 5.155 0 6.49v4.861c0 .118.42 0 .538 0-.034.124.128 0 0 0zM9.681 50.238V38.895a1.121 1.121 0 01.538-1.08 2.894 2.894 0 001.076-3.24 2.016 2.016 0 00-.766-1.226 2 2 0 00-1.385-.395c-1.16-.01-2.34.51-2.69 1.62a2.9 2.9 0 001.076 3.241 1.086 1.086 0 01.538 1.08c-.02 3.65 0 7.154 0 10.803v.54L2.69 39.976c-.608-1.282-1.038-2.49-1.614-3.781a1.6 1.6 0 010-1.08 17.71 17.71 0 003.227-9.182c.02-.09-.04.081 0 0h9.143c.298 1.404.196 2.437.538 3.78a17.343 17.343 0 002.69 5.402 1.067 1.067 0 010 1.08" fill="#fff"/><path d="M14.522 24.313v1.08c-.166.407-.64 1.12-1.076 1.08H4.841a1.322 1.322 0 01-1.075-1.08v-1.08h10.756z" fill="#fff"/><path d="M9.143 26.475l2.15-1.08v2.16l-2.15-1.08zM8.606 26.475l-2.15 1.08v-2.16l2.15 1.08z" fill="#FFFCF8"/><path d="M8.606 51.316c-.373-.079-1.416 1.093-1.076 2.16.493 1.593 3.877 2.097 4.84 2.161 3.347.227 4.454-1.217 7.53-.54 1.981.427 2.506 1.138 2.689 1.62.215.583-.228 1.475 0 1.62.227.146.906-.518 1.076-1.08a1.604 1.604 0 00-.538-1.62c-.592-.58-1.358-.894-2.69-1.08-2.015-.295-3.252 0-5.378 0a9.434 9.434 0 01-3.226-.54c-1.81-.464-2.562-.88-2.69-1.08-.49-.8-.278-1.566-.537-1.62z" fill="#fff"/></symbol><symbol fill="none" viewBox="0 0 64 64" id="plagiarism" xmlns="http://www.w3.org/2000/svg"><path fill-rule="evenodd" clip-rule="evenodd" d="M10.37.228c-.476.163-1.287.916-5.272 4.9C.818 9.406.369 9.892.184 10.467c-.186.574-.202 2.045-.172 15.824l.033 15.192.27.5c.32.59.934 1.194 1.545 1.519.408.217.878.235 6.92.268l6.482.036.37-.37c.204-.203.37-.49.37-.636 0-.211-.272-.898-.41-1.031-.015-.015-2.919-.058-6.452-.094l-6.426-.067-.302-.35-.302-.352V11.774h3.357c3.996 0 4.385-.073 5.297-.984.911-.911.983-1.3.983-5.296V2.136l8.256.034c7.732.032 8.27.048 8.48.257.208.209.227.78.286 8.736l.062 8.513.351.302c.46.394 1.01.392 1.407-.005l.307-.307-.001-8.606-.001-8.606-.296-.634A3.152 3.152 0 0028.785.206c-.845-.288-17.57-.268-18.414.022zM43.788.132c-.743.226-1.295.724-5.652 5.097-3.229 3.24-4.648 4.75-4.787 5.09-.169.41-.199 1.157-.199 4.916v4.43l.307.308c.398.397.948.4 1.407.005l.351-.302.036-3.944.037-3.944 3.593-.039 3.593-.038.65-.342c.357-.188.791-.53.966-.758.676-.886.7-1.052.7-4.9V2.14h16.414l.366.366.366.366v38.033l-.302.351-.302.351-6.425.067c-3.534.036-6.438.079-6.453.094-.137.133-.41.82-.41 1.031 0 .146.166.433.37.636l.37.37 6.482-.036c6.042-.033 6.512-.05 6.92-.268.612-.325 1.225-.929 1.544-1.518l.271-.5V2.328l-.276-.516c-.386-.721-1.3-1.49-1.97-1.659-.64-.16-17.443-.182-17.967-.022zM9.595 6.392c-.05 3.47.24 3.18-3.233 3.23-1.443.022-2.625-.006-2.625-.06 0-.133 5.663-5.794 5.795-5.794.056 0 .085 1.18.063 2.623zm32.93 2.71c-.256.482-.637.545-3.28.545h-2.527l2.94-2.94 2.94-2.942.035 2.535c.023 1.716-.011 2.62-.108 2.802zM6.178 14.99c-.813.197-1.095 1.229-.49 1.797l.322.303 9.158.038c6.424.026 9.3-.003 9.632-.1.989-.289 1.076-1.561.134-1.955-.339-.141-2.035-.17-9.46-.158-4.975.008-9.158.042-9.296.075zm32.906.087c-.914.402-.81 1.668.161 1.95.333.098 3.208.127 9.632.1l9.158-.037.323-.303a1.033 1.033 0 000-1.52l-.323-.304-9.283-.028c-7.58-.023-9.353.003-9.668.142zM5.928 20.424c-.648.354-.77 1.161-.256 1.675l.307.308H24.992l.335-.399c.406-.483.358-1.016-.132-1.447l-.32-.281-9.349.004c-6.524.002-9.424.045-9.598.14zm32.922.137c-.49.431-.538.964-.132 1.447l.336.399h19.012l.308-.308c.302-.302.396-.815.23-1.25-.219-.568-.232-.57-10.11-.57H39.17l-.32.282zm-8.642 1.979c-5.81.789-10.478 4.616-12.35 10.124-.976 2.874-.987 6.458-.028 9.325a15.039 15.039 0 003.554 5.82 15.034 15.034 0 005.595 3.617l.777.282.037 4.582.037 4.583.332.707c.412.88 1.208 1.67 2.108 2.095.573.27.867.325 1.753.325.89 0 1.18-.054 1.771-.332.88-.412 1.671-1.207 2.096-2.107l.325-.688.037-4.583.037-4.582.777-.28c4.986-1.793 8.675-6.183 9.657-11.491.244-1.322.249-3.796.01-5.161-1.059-6.03-5.857-10.91-11.855-12.055-1.31-.25-3.527-.337-4.67-.181zm2.656 2.071l.279.075.034 8.649.035 8.649.347.741c.47 1.002 1.068 1.703 1.967 2.303 1.03.688 2.024.896 4.272.896h1.78l-.303.324c-.601.64-1.996 1.703-2.944 2.244a12.701 12.701 0 01-12.616 0c-.949-.54-2.344-1.604-2.944-2.244l-.304-.324h1.757c.966 0 2.06-.057 2.431-.127 1.59-.299 3.06-1.452 3.775-2.96l.404-.853.034-8.655c.033-8.07.05-8.658.25-8.71.33-.087 1.434-.092 1.746-.008zm-4.095 8.602v8.18l-.35.67c-.38.731-1.188 1.378-2.006 1.605-.253.07-1.593.128-2.977.129H20.92l-.508-1.094c-.28-.602-.6-1.46-.713-1.908a46.853 46.853 0 00-.27-1.032c-.06-.203.123-.219 2.604-.22 2.896-.003 3.167-.055 3.461-.668.204-.424.11-.863-.255-1.204-.257-.24-.432-.253-3.145-.253h-2.872l.064-1.095c.035-.602.19-1.559.344-2.127l.28-1.032h2.306c2.607 0 3.026-.093 3.292-.735.195-.47.006-1.06-.417-1.302-.16-.092-1.023-.176-2.182-.214l-1.917-.063.619-.875c1.105-1.563 2.913-3.12 4.654-4.007.637-.324 2.193-.926 2.41-.932.051-.002.094 3.678.094 8.177zm7.6-7.86c2.466.927 4.718 2.661 6.163 4.747l.52.75-1.916.063c-1.158.038-2.022.122-2.181.214-.424.243-.613.832-.418 1.302.266.642.685.735 3.293.735h2.305l.28 1.032c.154.568.31 1.525.344 2.127l.064 1.095h-2.896c-2.716 0-2.91.015-3.143.247-.343.343-.431.797-.233 1.21.294.613.565.665 3.461.667 2.482.002 2.664.017 2.604.221-.036.12-.157.585-.27 1.032-.112.447-.433 1.306-.713 1.908l-.508 1.094H40.61c-1.384 0-2.723-.058-2.977-.129-.818-.227-1.627-.874-2.006-1.605l-.35-.67v-8.18c0-5.242.045-8.18.123-8.18.067 0 .504.144.97.32zm-30.697.613c-.507.506-.406 1.322.202 1.636.527.273 11.47.273 11.997 0 .608-.314.709-1.13.202-1.636l-.307-.307H5.98l-.307.307zm40.3 0c-.507.506-.406 1.322.202 1.636.527.273 11.47.273 11.997 0 .608-.314.71-1.13.203-1.636l-.308-.307H46.28l-.307.307zM6.178 31.002c-.813.197-1.095 1.229-.49 1.797l.322.303 4.34.034c3.949.031 4.378.015 4.775-.187.825-.42.825-1.404 0-1.817-.391-.196-.867-.217-4.567-.204-2.271.008-4.242.041-4.38.074zm42.742.127c-.515.261-.731.749-.556 1.254.069.198.304.438.556.566.398.202.826.218 4.776.187l4.34-.034.322-.303c.233-.219.323-.431.323-.76 0-.33-.09-.542-.323-.76l-.323-.304-4.339-.034c-3.95-.031-4.378-.014-4.776.188zM5.928 36.434c-.648.36-.77 1.163-.256 1.677l.307.307h4.119c3.977 0 4.13-.008 4.448-.259.41-.322.455-1.06.091-1.51l-.239-.295-4.11-.03c-2.843-.02-4.187.013-4.36.11zm43.781-.016c-.624.251-.752 1.315-.21 1.741.318.25.471.26 4.448.26h4.12l.307-.308c.188-.188.307-.45.307-.677 0-1.114-.123-1.144-4.781-1.134-2.155.004-4.04.057-4.19.118zM34.15 56.217c0 4.406-.014 4.5-.792 5.183-1.058.93-2.741.519-3.294-.803-.13-.31-.169-1.324-.169-4.38V52.24h4.255v3.976z" fill="#D83838"/></symbol><symbol viewBox="0 0 23 22" id="telegram" xmlns="http://www.w3.org/2000/svg"><circle cx="11.463" cy="11" r="11"/><path d="M10.387 12.684l-.166 2.407c.237 0 .34-.105.463-.231l1.11-1.098 2.298 1.743c.422.243.72.115.833-.402l1.509-7.318c.134-.645-.225-.897-.636-.74l-8.87 3.515c-.606.244-.597.593-.104.751l2.268.73 5.268-3.41c.248-.17.474-.077.288.093l-4.261 3.96z" fill="#fff"/></symbol><symbol fill="none" viewBox="0 0 22 22" id="telegram-white" xmlns="http://www.w3.org/2000/svg"><circle cx="11" cy="11" r="11" fill="#fff"/><path d="M9.924 12.684l-.165 2.407c.236 0 .339-.105.462-.231l1.11-1.098 2.298 1.743c.422.243.72.115.833-.402l1.51-7.318c.133-.645-.226-.897-.637-.74l-8.87 3.515c-.606.244-.597.593-.104.751l2.268.73 5.268-3.41c.248-.17.474-.077.288.093l-4.261 3.96z" fill="#000"/></symbol><symbol viewBox="0 0 23 22" id="viber" xmlns="http://www.w3.org/2000/svg"><circle cx="11.463" cy="11" r="11"/><path d="M15.463 10.825c.014-1.713-1.392-3.284-3.135-3.5a2.449 2.449 0 01-.112-.019 1.573 1.573 0 00-.266-.03c-.357 0-.453.26-.478.416a.494.494 0 00.07.377c.118.167.326.196.493.22.049.007.095.014.134.023 1.566.363 2.093.933 2.35 2.544.007.04.01.088.013.14.01.192.034.592.45.592a.713.713 0 00.11-.009c.386-.061.374-.427.368-.603a.924.924 0 01.003-.151z" fill="#fff"/><path d="M11.96 7.046c.04.003.079.006.11.011 2.247.36 3.28 1.465 3.566 3.817.005.04.006.088.007.14.003.184.008.566.404.574h.012a.38.38 0 00.293-.115c.123-.134.114-.333.107-.492a2.036 2.036 0 01-.002-.109c.028-2.405-1.976-4.586-4.29-4.667l-.027.001a.188.188 0 01-.028.002c-.023 0-.051-.002-.081-.004-.037-.003-.078-.006-.12-.006-.368 0-.438.272-.447.434-.02.375.328.402.496.414zM15.806 13.867a14.278 14.278 0 00-.933-.74l-.163-.12c-.334-.252-.635-.375-.92-.375-.382 0-.715.227-.99.674-.123.198-.27.294-.453.294a.85.85 0 01-.364-.098c-1.08-.525-1.85-1.329-2.292-2.39-.213-.514-.144-.849.231-1.122.213-.155.61-.443.582-.995-.032-.627-1.323-2.514-1.867-2.728a.994.994 0 00-.72-.002c-.626.225-1.075.62-1.299 1.144-.216.505-.206 1.099.028 1.716.679 1.785 1.633 3.341 2.836 4.626 1.178 1.257 2.625 2.287 4.302 3.06.151.07.31.108.426.136.04.01.073.017.098.025a.157.157 0 00.042.006h.013c.789 0 1.736-.772 2.027-1.653.255-.77-.21-1.152-.584-1.458z" fill="#fff"/><path d="M11.974 9.433c-.127.003-.39.01-.482.29-.043.132-.038.246.015.34.079.136.229.178.365.201.495.083.75.37.8.903.024.248.184.421.389.421.015 0 .03 0 .046-.002.247-.031.366-.22.355-.564.004-.359-.175-.765-.48-1.09-.305-.325-.673-.508-1.008-.5z" fill="#fff"/></symbol><symbol fill="none" viewBox="0 0 22 22" id="viber-white" xmlns="http://www.w3.org/2000/svg"><circle cx="11" cy="11" r="11" fill="#fff"/><path d="M15 10.825c.014-1.713-1.392-3.284-3.135-3.5a2.449 2.449 0 01-.112-.019 1.573 1.573 0 00-.266-.03c-.357 0-.453.26-.478.416a.495.495 0 00.07.377c.118.167.326.196.493.22.05.007.095.014.134.023 1.566.363 2.093.933 2.35 2.544.007.04.01.088.013.14.01.192.034.592.45.592a.713.713 0 00.11-.009c.386-.061.374-.427.368-.603a.924.924 0 01.003-.151z" fill="#000"/><path d="M11.497 7.046c.04.003.079.006.11.011 2.247.36 3.28 1.465 3.567 3.817.004.04.005.088.006.14.003.184.009.566.404.574h.012a.38.38 0 00.293-.115c.123-.134.114-.333.108-.492a2.036 2.036 0 01-.003-.109c.028-2.405-1.976-4.586-4.29-4.667l-.027.001a.188.188 0 01-.028.002c-.023 0-.051-.002-.081-.004-.037-.003-.078-.006-.12-.006-.368 0-.438.272-.447.434-.02.375.328.402.496.414zM15.343 13.867a14.278 14.278 0 00-.933-.74l-.163-.12c-.334-.252-.635-.375-.92-.375-.382 0-.715.227-.99.674-.123.198-.27.294-.453.294a.85.85 0 01-.364-.098c-1.08-.525-1.85-1.329-2.292-2.39-.213-.514-.144-.849.232-1.122.212-.155.609-.443.58-.995-.031-.627-1.322-2.514-1.866-2.728a.994.994 0 00-.72-.002c-.626.225-1.075.62-1.299 1.144-.216.505-.206 1.099.029 1.716.678 1.785 1.632 3.341 2.835 4.626 1.178 1.257 2.625 2.287 4.302 3.06.152.07.31.108.426.136.04.01.073.017.098.025a.157.157 0 00.042.006h.013c.79 0 1.736-.772 2.027-1.653.255-.77-.21-1.152-.584-1.458z" fill="#000"/><path d="M11.51 9.433c-.126.003-.389.01-.481.29-.043.132-.038.246.015.34.079.136.229.178.365.201.496.083.75.37.8.903.024.248.184.421.389.421.015 0 .03 0 .046-.002.247-.031.366-.22.355-.564.004-.359-.175-.765-.48-1.09-.305-.325-.673-.508-1.008-.5z" fill="#000"/></symbol><symbol viewBox="0 0 55 13" id="wave" xmlns="http://www.w3.org/2000/svg"><path fill-rule="evenodd" clip-rule="evenodd" d="M10.793.293a1 1 0 011.414 0L22 10.086 31.793.293a1 1 0 011.414 0L43 10.086 52.793.293a1 1 0 111.414 1.414l-10.5 10.5a1 1 0 01-1.414 0L32.5 2.414l-9.793 9.793a1 1 0 01-1.414 0L11.5 2.414l-9.793 9.793a1 1 0 01-1.414-1.414l10.5-10.5z"/></symbol></svg>