<?xml version="1.0" encoding="utf-8"?><svg xmlns="http://www.w3.org/2000/svg" xmlns:xlink="http://www.w3.org/1999/xlink"><symbol fill="none" viewBox="0 0 40 40" id="burger" xmlns="http://www.w3.org/2000/svg"><circle opacity=".8" cx="20" cy="20" r="20" fill="#D83838"/><path stroke="#fff" stroke-width="2" stroke-linecap="round" d="M9 14h22M9 19h22M9 24h22"/></symbol><symbol viewBox="0 0 15 14" id="call" xmlns="http://www.w3.org/2000/svg"><path d="M11.771 5.385h-1.076A1.617 1.617 0 009.08 3.769V2.692a2.694 2.694 0 012.691 2.693z"/><path d="M13.925 5.385h-1.077a3.774 3.774 0 00-3.768-3.77V.538a4.849 4.849 0 014.845 4.847zM12.848 14h-.091C2.179 13.392.677 4.464.467 1.74A1.616 1.616 0 012.083 0H4.92A1.076 1.076 0 015.92.678l.819 2.014a1.077 1.077 0 01-.237 1.163L5.355 5.013a5.04 5.04 0 004.08 4.092l1.168-1.157a1.076 1.076 0 011.168-.221l2.03.813a1.076 1.076 0 01.662 1.002v2.843A1.616 1.616 0 0112.848 14zM2.082 1.077a.538.538 0 00-.538.581c.248 3.188 1.836 10.727 11.272 11.265a.538.538 0 00.57-.505V9.542l-2.029-.814-1.545 1.535-.258-.032C4.87 9.644 4.236 4.959 4.236 4.91l-.033-.259 1.529-1.545-.807-2.03H2.082z"/></symbol><symbol fill="none" viewBox="0 0 51 51" id="close" xmlns="http://www.w3.org/2000/svg"><path fill="#fff" d="M23.91 17.09l.786-.786 10.606 10.607-.785.786z"/><path fill="#fff" d="M24.695 27.696l-.785-.786 10.606-10.606.786.785z"/><circle cx="29.5" cy="21.5" r="14" stroke="#fff"/></symbol><symbol fill="none" viewBox="0 0 24 59" id="logo" xmlns="http://www.w3.org/2000/svg"><path d="M.538 11.35L2.15 5.95c.102-.408.658-1.055 1.076-1.08h6.992a6.72 6.72 0 011.075 0h4.303c.315.032.396.255.538.54l.537 1.08c.224.336.405.7.538 1.08l.538 2.16c.06.36.175.54.538.54a.682.682 0 00.538-.54v-2.7c0-.998-.55-1.853-1.076-2.7a5.513 5.513 0 00-2.057-2.007 5.483 5.483 0 00-2.783-.694h-1.076c-.252 0-.36-.36-.538-.54A4.572 4.572 0 008.067.008H7.53a8.182 8.182 0 00-4.84 1.62 6.98 6.98 0 00-1.076 1.08v.54C.786 4.292 0 5.155 0 6.49v4.861c0 .118.42 0 .538 0-.034.124.128 0 0 0zM9.681 50.238V38.895a1.121 1.121 0 01.538-1.08 2.894 2.894 0 001.076-3.24 2.016 2.016 0 00-.766-1.226 2 2 0 00-1.385-.395c-1.16-.01-2.34.51-2.69 1.62a2.9 2.9 0 001.076 3.241 1.086 1.086 0 01.538 1.08c-.02 3.65 0 7.154 0 10.803v.54L2.69 39.976c-.608-1.282-1.038-2.49-1.614-3.781a1.6 1.6 0 010-1.08 17.71 17.71 0 003.227-9.182c.02-.09-.04.081 0 0h9.143c.298 1.404.196 2.437.538 3.78a17.343 17.343 0 002.69 5.402 1.067 1.067 0 010 1.08" fill="#313131"/><path d="M14.522 24.313v1.08c-.166.407-.64 1.12-1.076 1.08H4.841a1.322 1.322 0 01-1.075-1.08v-1.08h10.756z" fill="#313131"/><path d="M9.143 26.475l2.15-1.08v2.16l-2.15-1.08zM8.606 26.475l-2.15 1.08v-2.16l2.15 1.08z" fill="#FFFCF8"/><path d="M8.606 51.316c-.373-.079-1.416 1.093-1.076 2.16.493 1.593 3.877 2.097 4.84 2.161 3.347.227 4.454-1.217 7.53-.54 1.981.427 2.506 1.138 2.689 1.62.215.583-.228 1.475 0 1.62.227.146.906-.518 1.076-1.08a1.604 1.604 0 00-.538-1.62c-.592-.58-1.358-.894-2.69-1.08-2.015-.295-3.252 0-5.378 0a9.434 9.434 0 01-3.226-.54c-1.81-.464-2.562-.88-2.69-1.08-.49-.8-.278-1.566-.537-1.62z" fill="#313131"/></symbol><symbol viewBox="0 0 23 22" id="telegram" xmlns="http://www.w3.org/2000/svg"><circle cx="11.463" cy="11" r="11"/><path d="M10.387 12.684l-.166 2.407c.237 0 .34-.105.463-.231l1.11-1.098 2.298 1.743c.422.243.72.115.833-.402l1.509-7.318c.134-.645-.225-.897-.636-.74l-8.87 3.515c-.606.244-.597.593-.104.751l2.268.73 5.268-3.41c.248-.17.474-.077.288.093l-4.261 3.96z" fill="#fff"/></symbol><symbol viewBox="0 0 23 22" id="viber" xmlns="http://www.w3.org/2000/svg"><circle cx="11.463" cy="11" r="11"/><path d="M15.463 10.825c.014-1.713-1.392-3.284-3.135-3.5a2.449 2.449 0 01-.112-.019 1.573 1.573 0 00-.266-.03c-.357 0-.453.26-.478.416a.494.494 0 00.07.377c.118.167.326.196.493.22.049.007.095.014.134.023 1.566.363 2.093.933 2.35 2.544.007.04.01.088.013.14.01.192.034.592.45.592a.713.713 0 00.11-.009c.386-.061.374-.427.368-.603a.924.924 0 01.003-.151z" fill="#fff"/><path d="M11.96 7.046c.04.003.079.006.11.011 2.247.36 3.28 1.465 3.566 3.817.005.04.006.088.007.14.003.184.008.566.404.574h.012a.38.38 0 00.293-.115c.123-.134.114-.333.107-.492a2.036 2.036 0 01-.002-.109c.028-2.405-1.976-4.586-4.29-4.667l-.027.001a.188.188 0 01-.028.002c-.023 0-.051-.002-.081-.004-.037-.003-.078-.006-.12-.006-.368 0-.438.272-.447.434-.02.375.328.402.496.414zM15.806 13.867a14.278 14.278 0 00-.933-.74l-.163-.12c-.334-.252-.635-.375-.92-.375-.382 0-.715.227-.99.674-.123.198-.27.294-.453.294a.85.85 0 01-.364-.098c-1.08-.525-1.85-1.329-2.292-2.39-.213-.514-.144-.849.231-1.122.213-.155.61-.443.582-.995-.032-.627-1.323-2.514-1.867-2.728a.994.994 0 00-.72-.002c-.626.225-1.075.62-1.299 1.144-.216.505-.206 1.099.028 1.716.679 1.785 1.633 3.341 2.836 4.626 1.178 1.257 2.625 2.287 4.302 3.06.151.07.31.108.426.136.04.01.073.017.098.025a.157.157 0 00.042.006h.013c.789 0 1.736-.772 2.027-1.653.255-.77-.21-1.152-.584-1.458z" fill="#fff"/><path d="M11.974 9.433c-.127.003-.39.01-.482.29-.043.132-.038.246.015.34.079.136.229.178.365.201.495.083.75.37.8.903.024.248.184.421.389.421.015 0 .03 0 .046-.002.247-.031.366-.22.355-.564.004-.359-.175-.765-.48-1.09-.305-.325-.673-.508-1.008-.5z" fill="#fff"/></symbol></svg>